<svg id="visual" viewBox="0 0 900 600" width="900" height="600" xmlns="http://www.w3.org/2000/svg" xmlns:xlink="http://www.w3.org/1999/xlink" version="1.1"><path d="M0 339L16.7 337.2C33.3 335.3 66.7 331.7 100 325.8C133.3 320 166.7 312 200 325.5C233.3 339 266.7 374 300 382.5C333.3 391 366.7 373 400 373.5C433.3 374 466.7 393 500 399.2C533.3 405.3 566.7 398.7 600 382.8C633.3 367 666.7 342 700 337.8C733.3 333.7 766.7 350.3 800 348.5C833.3 346.7 866.7 326.3 883.3 316.2L900 306L900 601L883.3 601C866.7 601 833.3 601 800 601C766.7 601 733.3 601 700 601C666.7 601 633.3 601 600 601C566.7 601 533.3 601 500 601C466.7 601 433.3 601 400 601C366.7 601 333.3 601 300 601C266.7 601 233.3 601 200 601C166.7 601 133.3 601 100 601C66.7 601 33.3 601 16.7 601L0 601Z" fill="#6600ff"></path><path d="M0 361L16.7 365.3C33.3 369.7 66.7 378.3 100 385.2C133.3 392 166.7 397 200 401.5C233.3 406 266.7 410 300 408C333.3 406 366.7 398 400 401.8C433.3 405.7 466.7 421.3 500 430.3C533.3 439.3 566.7 441.7 600 437C633.3 432.3 666.7 420.7 700 411.2C733.3 401.7 766.7 394.3 800 394.2C833.3 394 866.7 401 883.3 404.5L900 408L900 601L883.3 601C866.7 601 833.3 601 800 601C766.7 601 733.3 601 700 601C666.7 601 633.3 601 600 601C566.7 601 533.3 601 500 601C466.7 601 433.3 601 400 601C366.7 601 333.3 601 300 601C266.7 601 233.3 601 200 601C166.7 601 133.3 601 100 601C66.7 601 33.3 601 16.7 601L0 601Z" fill="#672bfd"></path><path d="M0 397L16.7 396.8C33.3 396.7 66.7 396.3 100 397.7C133.3 399 166.7 402 200 406C233.3 410 266.7 415 300 419.2C333.3 423.3 366.7 426.7 400 435.7C433.3 444.7 466.7 459.3 500 458.8C533.3 458.3 566.7 442.7 600 431.5C633.3 420.3 666.7 413.7 700 414.8C733.3 416 766.7 425 800 434.8C833.3 444.7 866.7 455.3 883.3 460.7L900 466L900 601L883.3 601C866.7 601 833.3 601 800 601C766.7 601 733.3 601 700 601C666.7 601 633.3 601 600 601C566.7 601 533.3 601 500 601C466.7 601 433.3 601 400 601C366.7 601 333.3 601 300 601C266.7 601 233.3 601 200 601C166.7 601 133.3 601 100 601C66.7 601 33.3 601 16.7 601L0 601Z" fill="#6940fa"></path><path d="M0 513L16.7 504C33.3 495 66.7 477 100 475.8C133.3 474.7 166.7 490.3 200 491.5C233.3 492.7 266.7 479.3 300 473.2C333.3 467 366.7 468 400 478.5C433.3 489 466.7 509 500 511.5C533.3 514 566.7 499 600 494.8C633.3 490.7 666.7 497.3 700 498.5C733.3 499.7 766.7 495.3 800 493.3C833.3 491.3 866.7 491.7 883.3 491.8L900 492L900 601L883.3 601C866.7 601 833.3 601 800 601C766.7 601 733.3 601 700 601C666.7 601 633.3 601 600 601C566.7 601 533.3 601 500 601C466.7 601 433.3 601 400 601C366.7 601 333.3 601 300 601C266.7 601 233.3 601 200 601C166.7 601 133.3 601 100 601C66.7 601 33.3 601 16.7 601L0 601Z" fill="#6c50f6"></path><path d="M0 562L16.7 561.8C33.3 561.7 66.7 561.3 100 553.7C133.3 546 166.7 531 200 526.3C233.3 521.7 266.7 527.3 300 536C333.3 544.7 366.7 556.3 400 562.2C433.3 568 466.7 568 500 562.7C533.3 557.3 566.7 546.7 600 544.3C633.3 542 666.7 548 700 542.8C733.3 537.7 766.7 521.3 800 516.3C833.3 511.3 866.7 517.7 883.3 520.8L900 524L900 601L883.3 601C866.7 601 833.3 601 800 601C766.7 601 733.3 601 700 601C666.7 601 633.3 601 600 601C566.7 601 533.3 601 500 601C466.7 601 433.3 601 400 601C366.7 601 333.3 601 300 601C266.7 601 233.3 601 200 601C166.7 601 133.3 601 100 601C66.7 601 33.3 601 16.7 601L0 601Z" fill="#715df2"></path></svg>